<?xml version="1.0" encoding="UTF-8" standalone="no"?>
<svg width="36px" height="36px" viewBox="0 0 36 36" version="1.1" xmlns="http://www.w3.org/2000/svg" xmlns:xlink="http://www.w3.org/1999/xlink">
    <!-- Generator: Sketch 39.1 (31720) - http://www.bohemiancoding.com/sketch -->
    <title>Group</title>
    <desc>Created with Sketch.</desc>
    <defs>
        <rect id="path-1" x="0" y="0" width="36" height="36"></rect>
        <mask id="mask-2" maskContentUnits="userSpaceOnUse" maskUnits="objectBoundingBox" x="0" y="0" width="36" height="36" fill="white">
            <use xlink:href="#path-1"></use>
        </mask>
    </defs>
    <g id="Page-1" stroke="none" stroke-width="1" fill="none" fill-rule="evenodd">
        <g id="Repurposing@2x">
            <g id="Group">
                <use id="Rectangle-17-Copy-8" stroke="#DC5BBB" mask="url(#mask-2)" stroke-width="2" xlink:href="#path-1"></use>
                <path d="M30.1702723,30.0925233 C30.1702723,25.5896037 26.5199348,21.9392662 22.0170153,21.9392662 C17.5140957,21.9392662 13.8637582,25.5896037 13.8637582,30.0925233 C18.8390173,30.0925233 25.4248289,30.0925233 30.1702723,30.0925233 Z" id="Oval-1-Copy-4" stroke="#DC5BBB" transform="translate(22.017015, 26.015895) scale(-1, -1) rotate(-317.000000) translate(-22.017015, -26.015895) "></path>
                <path d="M28.8125,21.8125 C28.8125,15.2541186 23.4958814,9.9375 16.9375,9.9375 C10.3791186,9.9375 5.0625,15.2541186 5.0625,21.8125 C12.3088313,21.8125 21.9008891,21.8125 28.8125,21.8125 Z" id="Oval-1-Copy-3" fill="#DC5BBB" style="mix-blend-mode: multiply;" transform="translate(16.937500, 15.875000) scale(1, -1) rotate(-270.000000) translate(-16.937500, -15.875000) "></path>
            </g>
        </g>
    </g>
</svg>