<?xml version="1.0" encoding="utf-8"?>
<!-- Generator: Adobe Illustrator 19.0.0, SVG Export Plug-In . SVG Version: 6.00 Build 0)  -->
<svg version="1.1" id="Layer_1" xmlns="http://www.w3.org/2000/svg" xmlns:xlink="http://www.w3.org/1999/xlink" x="0px" y="0px"
	 viewBox="-160 308.8 291 177.2" style="enable-background:new -160 308.8 291 177.2;" xml:space="preserve">
<style type="text/css">
	.st0{enable-background:new    ;}
	.st1{fill:#7F7F7F;}
	.st2{fill:#00B9F2;}
	.st3{fill:#FFFFFF;}
	.st4{fill:#00A875;}
	.st5{fill:#0072BC;}
	.st6{fill:#FFD500;}
	.st7{fill:#F15A22;}
	.st8{fill:#ED1C24;}
	.st9{fill:#F7941E;}
</style>
<title>151026-cmap-logo</title>
<g class="st0">
	<path d="M-148.8,451c0,7.8,2.6,12.6,7.6,12.6c3.8,0,5.8-2,6.9-7h1.5l-0.2,8.5h-1.4c-0.2-0.5-0.4-0.9-1-0.9c-0.7,0-2.9,1.4-6.2,1.4
		c-7,0-11.7-4.3-11.7-14.5c0-9.5,5.2-14.4,11.8-14.4c2.9,0,5,1.2,5.8,1.2c0.5,0,0.7-0.3,1-0.8h1.3l0.2,8.4h-1.5
		c-1-5.1-3-6.8-6.7-6.8C-146,438.6-148.8,442.4-148.8,451z"/>
	<path d="M-121.2,444.8c5.8,0,8.3,4.1,8.3,10.3c0,6.4-3,10.4-8.5,10.4c-5.6,0-8.3-4.1-8.3-10.3
		C-129.7,448.9-126.5,444.8-121.2,444.8z M-121.3,446.7c-3.6,0-4.3,3.9-4.3,8.3c0,4.5,0.8,8.6,4.4,8.6c3.5,0,4.3-3.9,4.3-8.4
		C-116.9,450.9-117.6,446.7-121.3,446.7z"/>
	<path d="M-104.6,445.2l0.3,3.3c1-2,3.1-3.8,6.4-3.8c3.8,0,5.5,2.1,5.5,6.8v11.6l2.4,0.3v1.6h-8.5v-1.6l2.3-0.3v-11.6
		c0-2.6-0.5-4.2-3.2-4.2c-2.4,0-4.6,1.8-4.6,5.1v10.7l2.4,0.3v1.6h-8.4v-1.6l2.4-0.3V447l-2.4-0.3v-1.6h5.4
		C-104.6,445.1-104.6,445.2-104.6,445.2z"/>
	<path d="M-82.4,445.2l0.3,3.3c1-2,3.1-3.8,6.4-3.8c3.8,0,5.5,2.1,5.5,6.8v11.6l2.4,0.3v1.6h-8.4v-1.6l2.3-0.3v-11.6
		c0-2.6-0.5-4.2-3.2-4.2c-2.4,0-4.6,1.8-4.6,5.1v10.7l2.4,0.3v1.6h-8.4v-1.6l2.4-0.3V447l-2.4-0.3v-1.6h5.3
		C-82.4,445.1-82.4,445.2-82.4,445.2z"/>
	<path d="M-57,444.8c4.4,0,7.1,2.7,7.1,8.7c0,0.5,0,1.1-0.1,1.7h-11.4c0,5,1.2,8,4.9,8c2.5,0,3.7-1.1,4.6-3.4l1.7,0.6
		c-1,3.1-3.2,5.2-7.1,5.2c-5.6,0-8.2-3.9-8.2-10.1C-65.5,448.5-62,444.8-57,444.8z M-53.8,453v-0.9c0-3.7-1-5.6-3.4-5.6
		c-2.8,0-4.1,2.9-4.3,6.4L-53.8,453L-53.8,453z"/>
	<path d="M-32,450.2c0,2.4-1.2,3.3-2.6,3.3c-1.4,0-2.4-0.9-2.4-2.3c0-0.4,0.1-1.2,0.4-1.8h1.2c0.1-0.3,0.1-0.6,0.1-0.9
		c0-1.3-1-1.8-2.8-1.8c-3.4,0-5,3-5,8.3c0,5.2,1.3,8.2,5,8.2c2.6,0,3.8-1.9,4.4-3.6l1.7,0.6c-0.5,1.8-2.4,5.3-7,5.3
		c-5.3,0-8.2-3.6-8.2-9.8c0-7.3,3.6-11,8.9-11C-34.6,444.8-32,446.9-32,450.2z"/>
</g>
<g class="st0">
	<path d="M-27.2,447.2h-2.7v-2h2.7V440l2.7-0.8h1v6h4.2v2h-4.2v13c0,2.2,0.5,3.1,1.9,3.1s2.2-0.7,2.8-3.2l1.5,0.4
		c-0.7,3.4-2.2,5-5.4,5c-2.8,0-4.5-1.4-4.5-4.7C-27.2,460.8-27.2,447.2-27.2,447.2z"/>
</g>
<g class="st0">
	<path d="M-9.2,445.2v18l2.8,0.3v1.6h-9.2v-1.6l2.7-0.3v-16.1l-2.7-0.3v-1.6H-9.2L-9.2,445.2z M-11.6,435.9c1.4,0,2.4,0.6,2.4,2.4
		c0,1.6-0.8,2.4-2.4,2.4c-1.8,0-2.4-1.1-2.4-2.4S-13.2,435.9-11.6,435.9z"/>
</g>
<g class="st0">
	<path d="M-6.2,445.2H2v1.6l-2.4,0.2l4.2,14l4.1-14l-2.5-0.2v-1.6h6.5v1.6l-1.8,0.2l-5.8,18.1h-3L-4.6,447l-1.6-0.2V445.2z"/>
	<path d="M19.7,445.2v18l2.8,0.3v1.6h-9.2v-1.6l2.7-0.3v-16.1l-2.7-0.3v-1.6H19.7L19.7,445.2z M17.4,435.9c1.4,0,2.4,0.6,2.4,2.4
		c0,1.6-0.8,2.4-2.4,2.4c-1.8,0-2.4-1.1-2.4-2.4S15.7,435.9,17.4,435.9z"/>
</g>
<g class="st0">
	<path d="M26.9,447.2h-2.7v-2h2.7V440l2.7-0.8h1v6h4.2v2h-4.2v13c0,2.2,0.5,3.1,1.9,3.1s2.2-0.7,2.8-3.2l1.5,0.4
		c-0.7,3.4-2.2,5-5.4,5c-2.8,0-4.5-1.4-4.5-4.7V447.2z"/>
</g>
<g class="st0">
	<path d="M36.8,445.2h8.3v1.6l-2.5,0.2l4.2,13.3L51,447l-2.4-0.2v-1.6h6.5v1.6l-1.8,0.2l-6.4,19.6c-1.5,4.4-2.3,7-5.9,7
		c-2,0-4.1-1.2-4.1-3.7c0-1.5,0.9-2.7,2.5-2.7c1.2,0,2.1,0.8,2.2,2.6l-1.4,0.8c-0.1,1,0.4,1.4,1.3,1.4c1.5,0,2-1.2,3.6-6.3
		l-6.5-18.6l-1.6-0.2v-1.7L36.8,445.2L36.8,445.2z"/>
</g>
<g class="st0">
	<path class="st1" d="M86,437.1v1.6l-2.6,0.2v24.3l2.6,0.3v1.6h-9.3v-1.6l2.7-0.3V439h-0.1l-7.6,26.1h-2.1L61.7,439h-0.1v24.2
		l2.5,0.3v1.6h-7v-1.6l2.3-0.3v-24.3l-2.3-0.2v-1.6h8.2l6.3,21.3h0.1l6.2-21.3L86,437.1L86,437.1z"/>
</g>
<g class="st0">
	<path class="st1" d="M99.3,454.6v-2.7c0-3.5-0.8-5.4-3.6-5.4c-1.1,0-2.9,0.2-2.9,1.7c0,0.1,0,0.3,0.1,0.5h1.2
		c0.1,0.5,0.2,1,0.2,1.4c0,1.4-0.9,2.1-2.2,2.1c-1.4,0-2.2-0.9-2.2-2.5c0-2.9,2.6-5,6.4-5c4.6,0,6.6,2,6.6,7.6v9.2
		c0,1.7,0.2,2.2,1.1,2.2c0.4,0,0.8-0.1,1.2-0.2l0.4,1.4c-0.6,0.4-1.7,0.7-2.8,0.7c-2,0-3-0.7-3.2-2.8c-1,1.8-3,2.8-5.4,2.8
		c-2.8,0-5.1-1.4-5.1-5.1c0-4.4,3.2-5.8,7.7-5.8h2.5V454.6z M99.3,459.4v-3.2h-2c-3.2,0-4.2,1.5-4.2,3.9c0,2,0.6,3.2,2.5,3.2
		C97.4,463.3,99.3,461.9,99.3,459.4z"/>
</g>
<g class="st0">
	<path class="st1" d="M107.1,471.5l2.3-0.3v-24.1l-2.3-0.3v-1.6h5.5l0.2,3.3c1-2.1,3.2-3.7,6.2-3.7c4.5,0,6.9,3.4,6.9,10.2
		c0,7-3.2,10.6-7.6,10.6c-2.3,0-4-0.7-5-1.8v7.4l4.2,0.4v1.6h-10.3L107.1,471.5L107.1,471.5z M113.2,452.7v5.9c0,3,1.8,4.9,4.4,4.9
		c3.1,0,4.2-2.8,4.2-8.2c0-5.1-0.8-8-4.1-8C115.2,447.2,113.2,449.2,113.2,452.7z"/>
</g>
<ellipse class="st2" cx="-62.2" cy="360.7" rx="39.5" ry="39.5"/>
<path class="st3" d="M-62.2,332.9c-15.4,0-27.9,12.5-27.9,27.9s12.5,27.9,27.9,27.9s27.9-12.5,27.9-27.9l0,0
	C-34.4,345.3-46.8,332.9-62.2,332.9z M-62.2,387.7c-14.9,0-26.9-12.1-26.9-26.9c0-14.9,12.1-26.9,26.9-26.9s26.9,12,26.9,26.8
	C-35.3,375.6-47.3,387.7-62.2,387.7z"/>
<path class="st3" d="M-61.7,338.7c-12.2,0-22,9.8-22,22s9.8,22,22,22s22-9.8,22-22C-39.7,348.6-49.6,338.7-61.7,338.7z M-61.7,380.3
	c-10.8,0-19.5-8.8-19.5-19.6s8.7-19.5,19.5-19.5s19.5,8.7,19.5,19.5S-50.9,380.3-61.7,380.3L-61.7,380.3z"/>
<ellipse class="st4" cx="-9.5" cy="382.3" rx="24.6" ry="24.6"/>
<path class="st3" d="M-9.5,401.9c-10.8,0-19.6-8.8-19.6-19.6c0-10.8,8.8-19.6,19.6-19.6s19.6,8.8,19.6,19.6
	C10.1,393.2,1.3,401.9-9.5,401.9z M-9.5,364.3c-9.9,0-18,8.1-18,18s8.1,18,18,18s18-8.1,18-18c0-4.8-1.9-9.3-5.3-12.7
	C-0.1,366.2-4.7,364.3-9.5,364.3L-9.5,364.3z"/>
<ellipse class="st5" cx="-101.7" cy="393.1" rx="27.5" ry="27.5"/>
<path class="st3" d="M-101.7,400.9c-4.3,0-7.8-3.5-7.8-7.8s3.5-7.8,7.8-7.8s7.8,3.5,7.8,7.8S-97.4,400.9-101.7,400.9z M-101.7,387.8
	c-2.9,0-5.3,2.4-5.3,5.3s2.4,5.3,5.3,5.3s5.3-2.4,5.3-5.3S-98.7,387.8-101.7,387.8z"/>
<path class="st3" d="M-101.7,417.5c-13.5,0-24.4-10.9-24.4-24.4s10.9-24.4,24.4-24.4s24.4,10.9,24.4,24.4l0,0
	C-77.3,406.6-88.2,417.5-101.7,417.5z M-101.7,369.9c-12.8,0-23.2,10.4-23.2,23.2c0,12.8,10.4,23.2,23.2,23.2s23.2-10.4,23.2-23.2
	C-78.5,380.3-88.9,370-101.7,369.9z"/>
<ellipse class="st6" cx="-37.7" cy="400.4" rx="16.9" ry="16.9"/>
<ellipse class="st7" cx="-64.9" cy="394.2" rx="15.2" ry="15.2"/>
<path class="st3" d="M-64.9,405.6c-6.3,0-11.4-5.1-11.3-11.4c0.1-6.3,5.1-11.4,11.4-11.3c6.3,0,11.3,5.1,11.3,11.4
	C-53.5,400.5-58.6,405.6-64.9,405.6z M-64.9,384.1c-5.6,0-10.1,4.5-10.1,10.1s4.5,10.1,10.1,10.1s10.1-4.5,10.1-10.1l0,0
	C-54.8,388.6-59.3,384.1-64.9,384.1z"/>
<ellipse class="st8" cx="-112.3" cy="364.1" rx="20.3" ry="20.3"/>
<ellipse class="st9" cx="-138.4" cy="384.4" rx="16.5" ry="16.5"/>
<path class="st3" d="M-138.4,397.3c-7.1,0-12.9-5.7-12.9-12.9c0-7.2,5.8-12.8,12.9-12.8c7.1,0,12.9,5.7,12.9,12.9l0,0
	C-125.5,391.5-131.3,397.3-138.4,397.3L-138.4,397.3z M-138.4,374.1c-5.7,0-10.4,4.6-10.4,10.4c0,5.7,4.6,10.4,10.4,10.4
	c5.7,0,10.4-4.6,10.4-10.4l0,0C-128,378.7-132.6,374.1-138.4,374.1L-138.4,374.1z"/>
<path class="st3" d="M-37.7,407.7c-4,0-7.3-3.3-7.3-7.3s3.3-7.3,7.3-7.3s7.3,3.3,7.3,7.3S-33.7,407.7-37.7,407.7z M-37.7,394
	c-3.5,0-6.3,2.9-6.3,6.4s2.9,6.3,6.4,6.3s6.3-2.8,6.3-6.3S-34.2,394-37.7,394L-37.7,394L-37.7,394z"/>
<path class="st3" d="M-9.5,397.1c-8.2,0-14.8-6.6-14.8-14.8c0-8.2,6.6-14.8,14.8-14.8s14.8,6.6,14.8,14.8S-1.3,397.1-9.5,397.1z
	 M-9.5,368.2c-7.8,0-14.1,6.3-14.1,14.1c0,7.8,6.3,14.1,14.1,14.1s14.1-6.3,14.1-14.1C4.6,374.5-1.7,368.2-9.5,368.2z"/>
<path class="st3" d="M-112.3,378.1c-7.7,0-13.9-6.2-13.9-14c0-7.7,6.2-13.9,14-13.9c7.7,0,14,6.2,13.9,14l0,0
	C-98.4,371.8-104.6,378.1-112.3,378.1z M-112.3,351.8c-6.8,0-12.3,5.5-12.3,12.3s5.5,12.3,12.3,12.3s12.3-5.5,12.3-12.3l0,0
	C-100,357.3-105.5,351.8-112.3,351.8z"/>
<path class="st3" d="M-112.3,370.8c-3.7,0-6.7-3-6.7-6.7s3-6.7,6.7-6.7s6.7,3,6.7,6.7C-105.6,367.8-108.6,370.8-112.3,370.8z
	 M-112.3,357.8c-3.5,0-6.3,2.8-6.3,6.3s2.8,6.3,6.3,6.3s6.3-2.8,6.3-6.3S-108.9,357.8-112.3,357.8L-112.3,357.8z"/>
</svg>
