<?xml version="1.0" encoding="utf-8"?>
<!-- Generator: Adobe Illustrator 20.1.0, SVG Export Plug-In . SVG Version: 6.00 Build 0)  -->
<svg version="1.1" id="Layer_1" xmlns="http://www.w3.org/2000/svg" xmlns:xlink="http://www.w3.org/1999/xlink" x="0px" y="0px"
	 viewBox="0 0 271.4 159.3" style="enable-background:new 0 0 271.4 159.3;" xml:space="preserve">
<style type="text/css">
	.st0{fill:#B0B0B0;}
	.st1{fill:#F9A45F;}
	.st2{fill:#B172B0;}
	.st3{fill:#4CBFE8;}
	.st4{fill:#231F20;}
	.st5{font-family:'HelveticaNeue-Bold';}
	.st6{font-size:11px;}
	.st7{font-family:'HelveticaNeue';}
	.st8{font-size:9px;}
	.st9{font-size:10px;}
	.st10{fill:#030303;}
	.st11{font-family:'HelveticaNeue-Medium';}
	.st12{fill:#FFFFFF;}
	.st13{font-size:8px;}
	.st14{fill:#231F20;stroke:#231F20;stroke-width:0.2;stroke-miterlimit:10;}
	.st15{fill:none;stroke:#231F20;stroke-width:0.5;stroke-miterlimit:10;}
</style>
<title>homepage-graphic</title>
<g>
	<g id="Layer_2">
		<path class="st0" d="M201.9,44.6h44.4v43.4c-28.5-2.4-23.2-18.3-44.4-18.3V44.6z"/>
		<path class="st0" d="M201.9,137.1h44.4V88.8c-29.5-2.4-18-11.8-44.4-11.8V137.1z"/>
		<path class="st1" d="M24.1,82.7H13.9v-9.3h10.2c11,0,15.6-1.2,20.5-2.5c5.7-1.5,11.5-3,25.5-3c2.9,0,3.7,0,5.9,0h9.8
			c4.1,0,6.9-1.1,10.8-2.5c5.7-2.2,12.7-2.8,26.1-2.8h78v7.3h-78c-11.3,0-16.8,0.1-22.2,2.1c-4.2,1.6-8.6,3.2-14.8,3.2h-9.8
			c-2.2,0-3,0-6,0c-12.4-0.1-17.3,1.2-22.5,2.6C42.1,79.2,36.5,82.7,24.1,82.7z"/>
		<path class="st1" d="M200.6,83.5h-87c-11.4,0-15.3-3.7-18.8-5.2c-3-1.3-5.8-2.5-13-2.5H70.6h-0.4c-6.3-0.2-12.7,0.6-18.8,2.4
			c-5.9,1.5-12.5,5.2-27.3,5.2H13.9v-0.7h10.2c14.6,0,21.2-3.7,27-5.2c6.4-1.8,13-2.6,19.6-2.4h0.3h10.8c7.4,0,10.3,1.2,13.4,2.6
			c3.5,1.5,7.2,5.1,18.3,5.1h87L200.6,83.5z"/>
		<path class="st2" d="M200.6,78.6h-57.9c-9.6,0-17.6-4.4-26.1-9.1c-8.9-4.9-18.2-12-29.8-12h-73v-1.7h73c12.2,0,21.7,7.3,30.9,12.3
			c8.2,4.6,16,8.9,24.9,8.9h57.9V78.6z"/>
		<rect x="13.9" y="44.7" class="st2" width="186.7" height="11.1"/>
		<path class="st3" d="M200.6,78.7v4.1h-71.3c-10.7,0-18.5-5.8-25.4-9.1C98,70.7,92.4,68,85.7,68H13.9v-4h71.8
			c8.1,0,14.6,3.1,20.9,6.2c6.6,3.2,13.5,8.5,22.8,8.5L200.6,78.7z"/>
		<path class="st3" d="M85.7,64H13.9v-6.6h71.8c3.3,0,6.4-0.2,10.4-0.6c6.2-0.5,14-1.1,26.5-1.1h78v6.5h-78
			c-12.2,0-19.7,0.6-25.7,1.1C92.9,63.7,89.4,64,85.7,64z"/>
		<rect x="13.9" y="83.4" class="st1" width="186.7" height="53.7"/>
		<text transform="matrix(1 0 0 1 2.22 17.54)" class="st4 st5 st6">Perturbagens</text>
		<text transform="matrix(1 0 0 1 194.6 17.54)" class="st4 st5 st6">Signatu</text>
		<text transform="matrix(1 0 0 1 234.53 17.54)" class="st4 st5 st6">r</text>
		<text transform="matrix(1 0 0 1 238.61 17.54)" class="st4 st5 st6">es</text>
		<text transform="matrix(1 0 0 1 131.07 41.48)" class="st4 st7 st8">Co</text>
		<text transform="matrix(1 0 0 1 142.73 41.48)" class="st4 st7 st8">r</text>
		<text transform="matrix(1 0 0 1 145.57 41.48)" class="st4 st7 st8">e cell lines (9)</text>
		<text transform="matrix(1 0 0 1 49.97 146.94)" class="st4 st7 st8">Unannotated</text>
		<text transform="matrix(1 0 0 1 54.67 41.48)" class="st4 st7 st8">Annotated</text>
		<text transform="matrix(1 0 0 1 17.81 31.8)" class="st4 st7 st9">27,927</text>
		<text transform="matrix(1 0 0 1 205.09 31.8)" class="st4 st7 st9">476,251</text>
		<text transform="matrix(1 0 0 1 126.7 146.82)" class="st4 st7 st8">V</text>
		<text transform="matrix(1 0 0 1 131.7 146.82)" class="st4 st7 st8">ariable lines (3-77)</text>
		<text transform="matrix(6.123234e-17 -1 1 6.123234e-17 9.64 67.9004)" class="st4 st7 st8">Genetic</text>
		<text transform="matrix(6.123234e-17 -1 1 6.123234e-17 9.11 139.1797)" class="st4 st7 st8">Small molecule</text>
		<text transform="matrix(1 0 0 1 216.4 115.39)" class="st10 st11 st8">53%</text>
		<text transform="matrix(1 0 0 1 216.46 63.35)" class="st10 st11 st8">47%</text>
		<text transform="matrix(6.123234e-17 -1 1 6.123234e-17 24.59 116.1504)" class="st4 st7 st8">19,811</text>
		<text transform="matrix(6.123234e-17 -1 1 6.123234e-17 24.59 67.7197)" class="st4 st7 st8">7,494</text>
		<text transform="matrix(1 0 0 1 51.74 54.03)" class="st12 st11 st13">LOF</text>
		<text transform="matrix(1 0 0 1 51.25 65.36)" class="st12 st11 st13">GOF</text>
		<path class="st14" d="M74.9,134.5v-2l-0.5-49.1c-0.1-0.7-0.8-1.2-1.5-1c-0.5,0.1-0.9,0.5-1,1h-0.5c0.2-1,1.2-1.6,2.1-1.4
			c0.7,0.1,1.3,0.7,1.4,1.4V134.5z"/>
		<path class="st14" d="M73.2,77.4c-0.9,0.1-1.7-0.6-1.8-1.4h0.5c0.1,0.7,0.8,1.2,1.5,1c0.5-0.1,0.9-0.5,1-1L75,45.6l0,0v30.3
			C74.9,76.8,74.1,77.5,73.2,77.4z"/>
		<path class="st14" d="M163.3,134.5L163.3,134.5L162.8,77c-0.1-0.7-0.8-1.2-1.5-1c-0.5,0.1-0.9,0.5-1,1h-0.5c0.2-1,1.2-1.6,2.2-1.4
			c0.7,0.2,1.2,0.7,1.4,1.4V134.5z"/>
		<path class="st14" d="M161.5,71.3c-0.9,0.1-1.7-0.6-1.8-1.4h0.5c0.1,0.7,0.8,1.2,1.5,1c0.5-0.1,0.9-0.5,1-1l0.5-24.3l0,0v24.3
			C163.2,70.8,162.4,71.4,161.5,71.3z"/>
		<line class="st15" x1="76.1" y1="14.2" x2="191.4" y2="14.2"/>
		<text transform="matrix(6.123234e-17 -1 1 6.123234e-17 255.29 137.4102)" class="st4 st11 st8">Discove</text>
		<text transform="matrix(6.123234e-17 -1 1 6.123234e-17 255.29 103.3604)" class="st4 st11 st8">r</text>
		<text transform="matrix(6.123234e-17 -1 1 6.123234e-17 255.29 92.0596)" class="st4 st11 st8">T</text>
		<text transform="matrix(6.123234e-17 -1 1 6.123234e-17 255.29 87.6104)" class="st4 st11 st8">ouchstone</text>
		<text transform="matrix(6.123234e-17 -1 1 6.123234e-17 265.55 89.0195)" class="st4 st11 st13">(Refe</text>
		<text transform="matrix(6.123234e-17 -1 1 6.123234e-17 265.55 69.2695)" class="st4 st11 st13">r</text>
		<text transform="matrix(6.123234e-17 -1 1 6.123234e-17 265.55 66.4902)" class="st4 st11 st13">ence</text>
		<text transform="matrix(6.123234e-17 -1 1 6.123234e-17 265.55 48.1699)" class="st4 st11 st13">)</text>
	</g>
</g>
</svg>
